<?xml version="1.0" encoding="UTF-8"?>
<svg id="Layer_1" xmlns="http://www.w3.org/2000/svg" version="1.1" viewBox="0 0 1000 1000">
  <!-- Generator: Adobe Illustrator 29.7.1, SVG Export Plug-In . SVG Version: 2.1.1 Build 8)  -->
  <defs>
    <style>
      .st0 {
        fill: #fff;
      }
    </style>
  </defs>
  <path class="st0" d="M578.6,310.1c-21.2-4.2-43.4-4-64.8-3.7-21.7.3-43.4,1.5-64.9,4-34.1,3.8-71,9-99.5,29.7-30.3,22.1-36.6,58.6-40.4,93.6-2,18.6-1.7,37.1,4.1,55,4.9,15.1,13.3,29.1,23.6,41.2,21.4,24.8,51.2,42.6,82.6,51.5,16.9,4.8,35.2,7.4,48.3,20.2,10.4,10.2,16.4,24.2,18.7,38.4,2.3,14.8.7,30-4.8,44-3.4,8.8,10.2,14.1,13.6,5.3,9.3-24,9.3-51.9-1.5-75.4-5.2-11.3-13-21.5-23.1-28.9-13-9.5-28.6-12.5-43.8-16.6-27.8-7.6-54.5-22-74.4-43-21.5-22.6-31.8-50.5-29.5-81.7,2.3-30.7,5.9-67.2,30.9-88.4,22.9-19.4,54.4-24.8,83.2-28.7,37.9-5.1,76.5-7.1,114.7-4.9,29.8,1.8,57.1,10.1,78.8,31.4,18.9,18.5,31.7,42.8,39.1,68,7.2,24.8,11.5,54,5.1,79.4-3.5,13.8-11,25.7-24.9,30.8-16.9,6.2-36.7,7.8-54.4,10-37.1,4.7-74.6,5.9-111.9,3.6-15.7-1-34.5-.6-49.1-7-15-6.6-17.7-23.6-19.3-38.1-3.7-32.8-4-69.4,15.3-97.8,8.2-12.1,19.4-22.3,33.3-27.4,16.8-6.2,36-3.8,53.3-1.3,17.9,2.5,35.7,6.7,52.7,12.9,14.8,5.4,26.7,13.6,32.4,28.8,5.2,13.9,4.7,29.5,3.3,44.1-1.2,12.8-1.3,34-12.7,42.3-6.1,4.5-14.7,5.1-22,6.2-9.2,1.4-18.4,2.7-27.7,3.3-16.6,1.1-34-.3-48.7-8.7-12.4-7.1-23-18.8-24.2-33.6-1.2-15,7.5-29.8,20.1-37.6,13.5-8.4,31.9-10.4,46.8-4.8,13.5,5,25.2,18.3,15,32.2-10.2,13.9-29.8,14.2-45.3,14.9-9.4.4-7,14.8,2.3,14.4,18.5-.8,38.2-2.6,51.6-16.9,11.2-11.9,13.6-29.2,3.5-42.7-21.1-28.5-70.2-24.1-92.8-.4-11.2,11.7-17.4,28-15.5,44.3,1.9,16.1,12.2,30,25.2,39.1,14.8,10.3,32.6,14.5,50.4,14.7,18.9.2,39.9-1.4,58.1-7,18.2-5.5,24.8-20.5,27.8-38.1,2.8-16.8,4.7-34.1,2.9-51.1-1.7-15.9-7.6-31.6-19.6-42.6-13.7-12.5-33.3-17.6-50.8-22.1-35.5-9-79-16.9-110.6,6.6-30.3,22.5-40.8,61.2-40.6,97.4,0,18,.7,37.6,6.3,54.9,5.3,16.6,17.4,26.9,34.2,30.9,19.1,4.5,39.9,4.9,59.5,5.6,21,.7,42.1.4,63.2-1,21.3-1.4,42.5-4,63.5-7.6,17.8-3.1,37-5.8,49.7-19.9,20.7-22.8,19.1-59.8,14.6-88.1-9.5-60.7-46.9-120.8-110.7-133.3Z"/>
</svg>