<?xml version="1.0" encoding="UTF-8"?>
<svg xmlns="http://www.w3.org/2000/svg" width="220" height="73" viewBox="140 380 720 240" fill="none">
  <path fill="#fff" d="M299.3 388.6c-12.3-2.4-25.3-2.3-37.8-2.2-12.6.2-25.3.9-37.8 2.3-19.8 2.2-41.4 5.2-58 17.3-17.7 12.9-21.3 34.1-23.5 54.5-1.2 10.9-1 21.6 2.4 32.1 2.8 8.8 7.7 17 13.8 24 12.5 14.5 29.9 24.8 48.2 30 9.9 2.8 20.5 4.3 28.2 11.8 6.1 5.9 9.6 14.1 10.9 22.4 1.4 8.7.4 17.5-2.8 25.6-2 5.1 5.9 8.2 7.9 3.1 5.4-14 5.4-30.2-.9-43.9-3-6.6-7.6-12.6-13.5-16.9-7.6-5.6-16.7-7.3-25.5-9.7-16.2-4.4-31.8-12.8-43.4-25.1-12.5-13.2-18.6-29.4-17.2-47.6 1.3-17.9 3.4-39.2 18-51.5 13.3-11.3 31.7-14.5 48.5-16.7 22.1-3 44.6-4.2 66.9-2.8 17.4 1 33.3 5.9 45.9 18.3 11 10.8 18.5 24.9 22.8 39.6 4.2 14.4 6.7 31.4 3 46.3-2 8.1-6.4 15-14.5 17.9-9.8 3.6-21.4 4.5-31.7 5.8-21.6 2.8-43.5 3.5-65.2 2.1-9.1-.6-20.1-.3-28.6-4.1-8.7-3.8-10.3-13.7-11.3-22.2-2.1-19.1-2.3-40.5 8.9-57 4.8-7.1 11.3-13 19.4-16 9.8-3.6 21-2.2 31-.8 10.4 1.5 20.8 3.9 30.7 7.5 8.6 3.1 15.6 7.9 18.9 16.8 3 8.1 2.8 17.2 1.9 25.7-.7 7.4-.7 19.8-7.4 24.7-3.6 2.6-8.6 3-12.8 3.6-5.4.8-10.7 1.5-16.2 1.9-9.6.6-19.8-.2-28.4-5.1-7.2-4.1-13.4-11-14.1-19.6-.7-8.8 4.4-17.4 11.7-21.9 7.8-4.9 18.6-6 27.3-2.8 7.9 2.9 14.7 10.6 8.7 18.8-5.9 8.1-17.4 8.3-26.4 8.7-5.5.2-4.1 8.6 1.3 8.4 10.8-.5 22.3-1.5 30.1-9.9 6.5-7 7.9-17 2.1-24.9-12.3-16.6-40.9-14-54.1-.2-6.5 6.8-10.1 16.3-9 25.8 1.1 9.4 7.1 17.5 14.7 22.8 8.6 6 19 8.4 29.4 8.5 11 .1 23.3-.8 33.8-4.1 10.6-3.2 14.5-12 16.2-22.2 1.6-9.8 2.8-19.9 1.7-29.8-1-9.3-4.4-18.4-11.4-24.8-8-7.3-19.4-10.3-29.6-12.9-20.7-5.2-46.1-9.8-64.4 3.9-17.6 13.1-23.8 35.7-23.7 56.7 0 10.5.4 21.9 3.7 32 3.1 9.7 10.1 15.7 19.9 18 11.2 2.6 23.2 2.9 34.7 3.3 12.3.4 24.6.2 36.8-.6 12.4-.8 24.8-2.3 37-4.5 10.4-1.8 21.5-3.4 29-11.6 12-13.3 11.1-34.8 8.5-51.4-5.6-35.3-27.4-70.4-64.5-77.7Z"/>
  <path fill="#fff" d="M285 556.5h.3c3.3-5.2 8.6-8.5 14.9-8.5s13.9 3.8 17.2 10.3c3.7-6.9 11.1-10.3 18.6-10.3 15.9 0 19.8 13 19.8 26v37.8h-10.6v-36.1c0-8.1-.5-18-11.4-18s-13.5 11.8-13.5 21.2v32.9h-10.6v-35.3c0-7.7-.9-18.8-11.1-18.8s-13.7 12.6-13.7 21.9v32.1h-10.6v-62.1H285v6.7Z"/>
  <path fill="#fff" d="M390.8 526.4c0 4.2-3.4 7.5-7.5 7.5s-7.5-3.3-7.5-7.5 3.4-7.5 7.5-7.5 7.5 3.4 7.5 7.5Zm-2.3 85.5h-10.6v-62.1h10.6v62.1Z"/>
  <path fill="#fff" d="M421.2 557.3h.3c4.4-5.9 10-9.3 17.7-9.3 17.2 0 21.2 12.4 21.2 27v36.9h-10.6v-35c0-10-.8-19-13.1-19s-15.5 13.5-15.5 24.6v29.5h-10.6v-62.1h10.6v7.5Z"/>
  <path fill="#fff" d="M526.5 603.3h-.3c-5.2 6.7-13 10.3-21.4 10.3-18.2 0-29.7-15.5-29.7-32.7s11.2-32.9 29.9-32.9 16.3 4 21.3 10.6h.3v-55.8h10.6v109.1h-10.6v-8.6ZM486 580.2c0 12.2 7.1 23.7 20.4 23.7s20.8-11 20.8-23.5-7.8-22.5-20.9-22.5-20.2 10.7-20.2 22.3Z"/>
  <path fill="#fff" d="M566.7 556.5h.3c3.7-4.9 6.9-8.5 13.7-8.5s6.5 1.2 9.5 2.9l-5 9.7c-2.1-1.5-3.6-2.8-6.3-2.8-11.6 0-12.2 14.9-12.2 23v31.1h-10.6v-62.1h10.6v6.7Z"/>
  <path fill="#fff" d="M606.3 583.1c.1 11.5 8.3 20.8 20.4 20.8s14.8-5.4 18.9-12.8l9 5.2c-5.9 11.1-16 17.4-28.7 17.4-18.5 0-30.4-14.1-30.4-32s10.7-33.6 30.1-33.6 30.5 16.5 29.5 35h-48.8Zm37.6-9c-1.5-9-9-16.3-18.2-16.3s-17.6 7.3-18.9 16.3h37.1Z"/>
  <path fill="#fff" d="M726.3 611.9h-10.6v-8.6h-.3c-5.4 6.9-12.7 10.3-21.4 10.3-18.2 0-29.7-15.5-29.7-32.7s11.2-32.9 29.9-32.9 16.1 4 21.3 10.6h.3v-8.9h10.6v62.1Zm-51.2-31.7c0 12.2 7.1 23.7 20.4 23.7s20.8-11 20.8-23.5-7.8-22.5-20.9-22.5-20.2 10.7-20.2 22.3Z"/>
  <path fill="#fff" d="M792 568.3h-.3c-4.9-6.2-11-10.4-19.3-10.4-12.8 0-21.9 10.6-21.9 23s8.5 23 21.4 23 15.1-4 20.2-10.7h.3v14.1c-6.1 4.1-12.3 6.3-19.7 6.3-18.8 0-33-14-33-32.8s14.9-32.8 33.2-32.8 13.6 2.2 19.2 6.2v14Z"/>
  <path fill="#fff" d="M819.3 502.8V557l.3.3c4.4-5.9 10-9.3 17.7-9.3 17.2 0 21.2 12.4 21.2 27v36.9h-10.6v-35c0-10-.8-19-13.1-19s-15.5 13.5-15.5 24.6v29.5h-10.6V502.8h10.6Z"/>
</svg>
