<?xml version="1.0" encoding="UTF-8"?>
<svg xmlns="http://www.w3.org/2000/svg" width="220" height="73" viewBox="140 380 720 240" fill="none">
  <path fill="#22B573" d="M299.6 388.8c-12.3-2.4-25.2-2.3-37.7-2.2-12.6.2-25.2.9-37.8 2.3-19.8 2.2-41.4 5.2-57.9 17.3-17.6 12.8-21.3 34.1-23.5 54.5-1.2 10.8-1 21.6 2.4 32 2.8 8.8 7.7 17 13.8 24 12.5 14.5 29.8 24.8 48.1 30 9.9 2.8 20.5 4.3 28.1 11.8 6.1 5.9 9.6 14.1 10.9 22.4 1.4 8.6.4 17.4-2.8 25.6-2 5.1 5.9 8.2 7.9 3.1 5.4-13.9 5.4-30.2-.9-43.9-3-6.6-7.6-12.5-13.4-16.8-7.6-5.5-16.7-7.3-25.5-9.7-16.2-4.4-31.7-12.8-43.3-25-12.5-13.2-18.5-29.4-17.2-47.5 1.3-17.9 3.4-39.1 18-51.4 13.3-11.3 31.7-14.5 48.4-16.7 22.1-3 44.5-4.2 66.8-2.8 17.4 1 33.3 5.9 45.9 18.3 11 10.8 18.4 24.9 22.7 39.6 4.2 14.4 6.7 31.4 2.9 46.2-2 8.1-6.4 15-14.5 17.9-9.8 3.6-21.4 4.5-31.7 5.8-21.6 2.7-43.4 3.5-65.2 2.1-9.1-.6-20.1-.3-28.6-4.1-8.7-3.8-10.3-13.7-11.2-22.2-2.1-19.1-2.3-40.4 8.9-57 4.8-7 11.3-13 19.4-16 9.8-3.6 20.9-2.2 31-.8 10.4 1.5 20.8 3.9 30.7 7.5 8.6 3.1 15.6 7.9 18.9 16.8 3 8.1 2.8 17.2 1.9 25.6-.7 7.4-.7 19.8-7.4 24.6-3.6 2.6-8.6 3-12.8 3.6-5.4.8-10.7 1.5-16.1 1.9-9.6.6-19.8-.2-28.4-5-7.2-4.1-13.4-11-14.1-19.6-.7-8.8 4.4-17.3 11.7-21.9 7.8-4.9 18.6-6 27.3-2.8 7.9 2.9 14.7 10.6 8.7 18.8-5.9 8.1-17.3 8.3-26.4 8.7-5.5.2-4.1 8.6 1.3 8.4 10.8-.5 22.2-1.5 30.1-9.8 6.5-7 7.9-17 2.1-24.9-12.3-16.6-40.9-14-54-.2-6.5 6.8-10.1 16.3-9 25.8 1.1 9.4 7.1 17.5 14.7 22.8 8.6 6 19 8.4 29.4 8.5 11 .1 23.3-.8 33.8-4.1 10.6-3.2 14.4-11.9 16.2-22.2 1.6-9.8 2.8-19.8 1.7-29.7-1-9.3-4.4-18.4-11.4-24.8-8-7.3-19.4-10.2-29.6-12.8-20.7-5.2-46-9.8-64.4 3.9-17.6 13.1-23.7 35.6-23.6 56.7 0 10.5.4 21.9 3.7 32 3.1 9.7 10.1 15.7 19.9 18 11.1 2.6 23.2 2.9 34.6 3.3 12.3.4 24.5.2 36.8-.6 12.4-.8 24.7-2.3 37-4.4 10.4-1.8 21.5-3.4 29-11.6 12-13.3 11.1-34.8 8.5-51.3-5.5-35.3-27.3-70.3-64.5-77.6Z"/>
  <path fill="#6B7280" d="M285.3 556.4h.3c3.3-5.1 8.6-8.5 14.9-8.5s13.9 3.8 17.2 10.3c3.7-6.9 11.1-10.3 18.6-10.3 15.8 0 19.8 12.9 19.8 26v37.8h-10.6v-36c0-8.1-.5-18-11.4-18s-13.5 11.8-13.5 21.1v32.9h-10.6v-35.3c0-7.7-.9-18.8-11.1-18.8s-13.7 12.5-13.7 21.9v32.1h-10.6v-62.1h10.6v6.7Z"/>
  <path fill="#6B7280" d="M390.9 526.3c0 4.2-3.4 7.5-7.5 7.5s-7.5-3.3-7.5-7.5 3.4-7.5 7.5-7.5 7.5 3.4 7.5 7.5Zm-2.2 85.5h-10.6v-62.1h10.6v62.1Z"/>
  <path fill="#6B7280" d="M421.3 557.2h.3c4.4-5.9 10-9.2 17.7-9.2 17.2 0 21.1 12.4 21.1 26.9v36.8h-10.6v-35c0-10-.8-19-13.1-19s-15.4 13.5-15.4 24.6v29.4h-10.6v-62.1h10.6v7.5Z"/>
  <path fill="#6B7280" d="M526.5 603.2h-.3c-5.1 6.7-12.9 10.3-21.4 10.3-18.2 0-29.7-15.4-29.7-32.6s11.2-32.9 29.8-32.9 16.2 4 21.3 10.6h.3v-55.7h10.6v108.9h-10.6v-8.6ZM486 580.1c0 12.1 7.1 23.6 20.3 23.6s20.7-11 20.7-23.5-7.8-22.4-20.9-22.4-20.2 10.7-20.2 22.3Z"/>
  <path fill="#111827" d="M566.7 556.4h.3c3.7-4.9 6.9-8.5 13.7-8.5s6.5 1.2 9.5 2.9l-5 9.6c-2.1-1.5-3.6-2.8-6.3-2.8-11.6 0-12.1 14.9-12.1 23v31h-10.6v-62.1h10.6v6.7Z"/>
  <path fill="#111827" d="M606.1 583c.1 11.5 8.3 20.7 20.3 20.7s14.8-5.4 18.9-12.8l9 5.1c-5.9 11.1-16 17.4-28.7 17.4-18.5 0-30.4-14.1-30.4-32s10.7-33.5 30.1-33.5 30.5 16.5 29.4 35h-48.7Zm37.7-9c-1.5-9-9-16.2-18.2-16.2s-17.6 7.3-18.9 16.2h37.1Z"/>
  <path fill="#111827" d="M726 611.8h-10.6v-8.6h-.3c-5.4 6.9-12.7 10.3-21.4 10.3-18.2 0-29.7-15.4-29.7-32.6s11.2-32.9 29.8-32.9 16.1 4 21.3 10.6h.3v-8.8H726v62.1Zm-51.1-31.7c0 12.1 7.1 23.6 20.3 23.6s20.7-11 20.7-23.5-7.8-22.4-20.9-22.4-20.2 10.7-20.2 22.3Z"/>
  <path fill="#111827" d="M791.7 568.2h-.3c-4.9-6.2-11-10.4-19.3-10.4-12.8 0-21.9 10.6-21.9 23s8.5 23 21.4 23 15.1-4 20.2-10.7h.3v14.1c-6.1 4.1-12.3 6.3-19.7 6.3-18.8 0-33-14-33-32.7s14.9-32.7 33.1-32.7 13.6 2.2 19.1 6.2v14Z"/>
  <path fill="#111827" d="M819 502.8v54.1l.3.3c4.4-5.9 10-9.2 17.7-9.2 17.2 0 21.1 12.4 21.1 26.9v36.8h-10.6v-35c0-10-.8-19-13.1-19s-15.4 13.5-15.4 24.6v29.4h-10.6v-108.9H819Z"/>
</svg>
